<svg width="36" height="40" viewBox="0 0 36 40" fill="none" xmlns="http://www.w3.org/2000/svg">
<g filter="url(#filter0_d_369_83343)">
<rect x="6" y="8" width="24" height="24" rx="4" fill="#327874"/>
<path fill-rule="evenodd" clip-rule="evenodd" d="M18.4598 19.4598C18.3189 19.6006 18.2398 19.7916 18.2398 19.9908C18.2398 20.1899 18.3189 20.3809 18.4598 20.5218L22.7087 24.7707C22.7779 24.8424 22.8608 24.8997 22.9525 24.939C23.0441 24.9784 23.1427 24.9991 23.2424 25C23.3421 25.0008 23.441 24.9818 23.5333 24.9441C23.6256 24.9063 23.7095 24.8505 23.78 24.78C23.8505 24.7095 23.9063 24.6256 23.9441 24.5333C23.9818 24.441 24.0008 24.3421 24 24.2424C23.9991 24.1427 23.9784 24.0441 23.939 23.9525C23.8997 23.8608 23.8424 23.7779 23.7707 23.7087L20.0528 19.9908L23.7707 16.2729C23.9075 16.1312 23.9832 15.9415 23.9815 15.7446C23.9798 15.5476 23.9008 15.3592 23.7616 15.22C23.6223 15.0807 23.4339 15.0017 23.237 15C23.04 14.9983 22.8503 15.074 22.7087 15.2108L18.4598 19.4598Z" fill="white"/>
</g>
<defs>
<filter id="filter0_d_369_83343" x="-4" y="0" width="44" height="48" filterUnits="userSpaceOnUse" color-interpolation-filters="sRGB">
<feFlood flood-opacity="0" result="BackgroundImageFix"/>
<feColorMatrix in="SourceAlpha" type="matrix" values="0 0 0 0 0 0 0 0 0 0 0 0 0 0 0 0 0 0 127 0" result="hardAlpha"/>
<feOffset dy="4"/>
<feGaussianBlur stdDeviation="2"/>
<feComposite in2="hardAlpha" operator="out"/>
<feColorMatrix type="matrix" values="0 0 0 0 0 0 0 0 0 0 0 0 0 0 0 0 0 0 0.25 0"/>
<feBlend mode="normal" in2="BackgroundImageFix" result="effect1_dropShadow_369_83343"/>
<feBlend mode="normal" in="SourceGraphic" in2="effect1_dropShadow_369_83343" result="shape"/>
</filter>
</defs>
</svg>
