<svg width="40" height="40" viewBox="0 0 40 40" fill="none" xmlns="http://www.w3.org/2000/svg">
<rect x="0.5" y="0.5" width="39" height="39" rx="3.5" fill="#EAFDFC"/>
<rect x="0.5" y="0.5" width="39" height="39" rx="3.5" stroke="#0F625D"/>
<path d="M10 20.8458L10 10.6923C10 10.2434 10.1916 9.81301 10.5325 9.49565C10.8735 9.17829 11.336 9 11.8182 9L28.1818 9C28.664 9 29.1265 9.17829 29.4675 9.49565C29.8084 9.81301 30 10.2434 30 10.6923L30 20.8458C30 21.2946 29.8084 21.725 29.4675 22.0424C29.1265 22.3598 28.664 22.5381 28.1818 22.5381L25.4545 22.5381C25.2134 22.5381 24.9822 22.4489 24.8117 22.2902C24.6412 22.1315 24.5455 21.9163 24.5455 21.6919C24.5455 21.4675 24.6412 21.2523 24.8117 21.0936C24.9822 20.9349 25.2134 20.8458 25.4545 20.8458L28.1818 20.8458L28.1818 10.6923L11.8182 10.6923L11.8182 20.8458L14.5455 20.8458C14.7866 20.8458 15.0178 20.9349 15.1883 21.0936C15.3588 21.2523 15.4545 21.4675 15.4545 21.6919C15.4545 21.9163 15.3588 22.1315 15.1883 22.2902C15.0178 22.4489 14.7866 22.5381 14.5455 22.5381L11.8182 22.5381C11.336 22.538 10.8735 22.3598 10.5325 22.0424C10.1916 21.725 10 21.2946 10 20.8458ZM23.9023 25.3239L20.9091 28.1109L20.9091 18.3074C20.9091 18.083 20.8133 17.8678 20.6428 17.7091C20.4723 17.5504 20.2411 17.4613 20 17.4613C19.7589 17.4613 19.5277 17.5504 19.3572 17.7091C19.1867 17.8678 19.0909 18.083 19.0909 18.3074L19.0909 28.1109L16.0977 25.3239C15.9271 25.1652 15.6958 25.076 15.4545 25.076C15.2133 25.076 14.9819 25.1652 14.8114 25.3239C14.6408 25.4827 14.5449 25.698 14.5449 25.9226C14.5449 26.1471 14.6408 26.3624 14.8114 26.5212L19.3568 30.7518C19.4412 30.8305 19.5415 30.8929 19.6519 30.9355C19.7622 30.9781 19.8805 31 20 31C20.1195 31 20.2378 30.9781 20.3481 30.9355C20.4585 30.8929 20.5588 30.8305 20.6432 30.7518L25.1886 26.5212C25.3592 26.3624 25.4551 26.1471 25.4551 25.9226C25.4551 25.698 25.3592 25.4827 25.1886 25.3239C25.0181 25.1652 24.7867 25.076 24.5455 25.076C24.3042 25.076 24.0729 25.1652 23.9023 25.3239Z" fill="#0F625D"/>
</svg>
