<svg width="16" height="16" viewBox="0 0 16 16" fill="none" xmlns="http://www.w3.org/2000/svg">
<path d="M3 4C3 4.55228 2.55228 5 2 5C1.44772 5 1 4.55228 1 4C1 3.44772 1.44772 3 2 3C2.55228 3 3 3.44772 3 4Z" fill="#0F625D"/>
<path d="M3 8C3 8.55228 2.55228 9 2 9C1.44772 9 1 8.55228 1 8C1 7.44772 1.44772 7 2 7C2.55228 7 3 7.44772 3 8Z" fill="#0F625D"/>
<path d="M3 12C3 12.5523 2.55228 13 2 13C1.44772 13 1 12.5523 1 12C1 11.4477 1.44772 11 2 11C2.55228 11 3 11.4477 3 12Z" fill="#0F625D"/>
<path d="M4 3H15V5H4V3Z" fill="#0F625D"/>
<path d="M4 7H15V9H4V7Z" fill="#0F625D"/>
<path d="M4 11H15V13H4V11Z" fill="#0F625D"/>
</svg>
