<svg width="16" height="16" viewBox="0 0 16 16" fill="none" xmlns="http://www.w3.org/2000/svg">
<path d="M12.6667 13.6H3.33333V5.9H12.6667M10.6667 1V2.4H5.33333V1H4V2.4H3.33333C2.59333 2.4 2 3.023 2 3.8V13.6C2 13.9713 2.14048 14.3274 2.39052 14.5899C2.64057 14.8525 2.97971 15 3.33333 15H12.6667C13.0203 15 13.3594 14.8525 13.6095 14.5899C13.8595 14.3274 14 13.9713 14 13.6V3.8C14 3.4287 13.8595 3.0726 13.6095 2.81005C13.3594 2.5475 13.0203 2.4 12.6667 2.4H12V1M11.3333 8.7H8V12.2H11.3333V8.7Z" fill="#777777"/>
</svg>
